<svg width="140" height="140" viewBox="0 0 140 140" fill="none" xmlns="http://www.w3.org/2000/svg">
<g id="account_circle">
<g id="Vector">
<path d="M70.0001 11.6665C37.8001 11.6665 11.6667 37.7998 11.6667 69.9998C11.6667 102.2 37.8001 128.333 70.0001 128.333C102.2 128.333 128.333 102.2 128.333 69.9998C128.333 37.7998 102.2 11.6665 70.0001 11.6665ZM42.8751 107.916C50.5167 102.433 59.8501 99.1665 70.0001 99.1665C80.1501 99.1665 89.4834 102.433 97.1251 107.916C89.4834 113.4 80.1501 116.666 70.0001 116.666C59.8501 116.666 50.5167 113.4 42.8751 107.916ZM105.817 99.8665C95.9584 92.1665 83.5334 87.4998 70.0001 87.4998C56.4667 87.4998 44.0417 92.1665 34.1834 99.8665C27.4167 91.7582 23.3334 81.3748 23.3334 69.9998C23.3334 44.2165 44.2167 23.3332 70.0001 23.3332C95.7834 23.3332 116.667 44.2165 116.667 69.9998C116.667 81.3748 112.583 91.7582 105.817 99.8665Z" fill="#21738B"/>
<path d="M70.0001 34.9998C58.7417 34.9998 49.5834 44.1582 49.5834 55.4165C49.5834 66.6748 58.7417 75.8332 70.0001 75.8332C81.2584 75.8332 90.4167 66.6748 90.4167 55.4165C90.4167 44.1582 81.2584 34.9998 70.0001 34.9998ZM70.0001 64.1665C65.1584 64.1665 61.2501 60.2582 61.2501 55.4165C61.2501 50.5748 65.1584 46.6665 70.0001 46.6665C74.8417 46.6665 78.7501 50.5748 78.7501 55.4165C78.7501 60.2582 74.8417 64.1665 70.0001 64.1665Z" fill="#21738B"/>
</g>
</g>
</svg>
